<svg width="24" height="24" viewBox="0 0 24 24" fill="none" xmlns="http://www.w3.org/2000/svg">
<path d="M23 12C23 18.0751 18.0751 23 12 23C5.92487 23 1 18.0751 1 12C1 5.92487 5.92487 1 12 1C18.0751 1 23 5.92487 23 12ZM3.2 12C3.2 16.8601 7.13989 20.8 12 20.8C16.8601 20.8 20.8 16.8601 20.8 12C20.8 7.13989 16.8601 3.2 12 3.2C7.13989 3.2 3.2 7.13989 3.2 12Z" fill="#727272"/>
<path d="M6.89845 15.5H5.74645C5.60245 15.5 5.55445 15.416 5.60245 15.248L7.49845 8.036C7.55445 7.868 7.67445 7.784 7.85845 7.784H9.45445C9.65445 7.784 9.77445 7.868 9.81445 8.036L11.7105 15.248C11.7585 15.416 11.7105 15.5 11.5665 15.5H10.4145C10.3265 15.5 10.2665 15.484 10.2345 15.452C10.2025 15.412 10.1785 15.344 10.1625 15.248L9.82645 13.928H7.48645L7.15045 15.248C7.13445 15.344 7.10645 15.412 7.06645 15.452C7.03445 15.484 6.97845 15.5 6.89845 15.5ZM8.63845 9.236L7.77445 12.704H9.55045L8.68645 9.236H8.63845ZM14.0461 15.5H13.0261C12.8581 15.5 12.7741 15.416 12.7741 15.248V8.036C12.7741 7.868 12.8581 7.784 13.0261 7.784H14.0461C14.2141 7.784 14.2981 7.868 14.2981 8.036V11.456H14.3221C14.3861 11.264 14.5101 11.016 14.6941 10.712L16.5181 8.036C16.6221 7.868 16.7781 7.784 16.9861 7.784H18.1621C18.2501 7.784 18.3021 7.812 18.3181 7.868C18.3421 7.916 18.3221 7.98 18.2581 8.06L15.9781 11.216L18.5221 15.2C18.5781 15.296 18.5861 15.372 18.5461 15.428C18.5141 15.476 18.4421 15.5 18.3301 15.5H17.4541C17.1741 15.5 16.9861 15.416 16.8901 15.248L15.0541 12.308L14.2981 13.196V15.248C14.2981 15.416 14.2141 15.5 14.0461 15.5Z" fill="#727272"/>
</svg>
