<svg width="22" height="22" viewBox="0 0 22 22" fill="none" xmlns="http://www.w3.org/2000/svg">
<rect x="5" y="1" width="16" height="16" rx="1" stroke="black" stroke-opacity="0.5" stroke-width="2"/>
<path d="M1 5V19C1 20.1046 1.89543 21 3 21H17" stroke="black" stroke-opacity="0.5" stroke-width="2"/>
<path d="M8.352 12H7.688C7.576 12 7.52 11.944 7.52 11.832V7.024C7.52 6.912 7.576 6.856 7.688 6.856H8.288C8.4 6.856 8.47467 6.89333 8.512 6.968L10.128 10H10.16V7.024C10.16 6.912 10.216 6.856 10.328 6.856H10.992C11.104 6.856 11.16 6.912 11.16 7.024V11.832C11.16 11.944 11.104 12 10.992 12H10.408C10.2907 12 10.2053 11.9467 10.152 11.84L8.552 8.864H8.52V11.832C8.52 11.944 8.464 12 8.352 12ZM13.0477 12H12.3677C12.2557 12 12.1997 11.944 12.1997 11.832V7.024C12.1997 6.912 12.2557 6.856 12.3677 6.856H14.9197C15.0264 6.856 15.0797 6.912 15.0797 7.024V7.568C15.0797 7.68 15.0264 7.736 14.9197 7.736H13.3117C13.2477 7.736 13.2157 7.76533 13.2157 7.824V9.064C13.2157 9.128 13.2477 9.16 13.3117 9.16H14.6797C14.7917 9.16 14.8477 9.216 14.8477 9.328V9.864C14.8477 9.98133 14.7917 10.04 14.6797 10.04H13.3117C13.2477 10.04 13.2157 10.0693 13.2157 10.128V11.832C13.2157 11.944 13.1597 12 13.0477 12ZM17.3932 12H16.7213C16.6039 12 16.5453 11.944 16.5453 11.832V7.824C16.5453 7.76533 16.5159 7.736 16.4572 7.736H15.5452C15.4333 7.736 15.3773 7.68 15.3773 7.568V7.024C15.3773 6.912 15.4333 6.856 15.5452 6.856H18.5693C18.6813 6.856 18.7373 6.912 18.7373 7.024V7.568C18.7373 7.68 18.6813 7.736 18.5693 7.736H17.6573C17.5933 7.736 17.5613 7.76533 17.5613 7.824V11.832C17.5613 11.944 17.5053 12 17.3932 12Z" fill="black" fill-opacity="0.5"/>
</svg>
